<?xml version="1.0" encoding="UTF-8" standalone="no"?>
<svg
   xmlns:dc="http://purl.org/dc/elements/1.1/"
   xmlns:cc="http://creativecommons.org/ns#"
   xmlns:rdf="http://www.w3.org/1999/02/22-rdf-syntax-ns#"
   xmlns:svg="http://www.w3.org/2000/svg"
   xmlns="http://www.w3.org/2000/svg"
   width="1000"
   height="1000"
   viewBox="0 0 264.58333 264.58334"
   version="1.1"
   id="svg938">
  <defs
     id="defs932" />
  <metadata
     id="metadata935">
    <rdf:RDF>
      <cc:Work
         rdf:about="">
        <dc:format>image/svg+xml</dc:format>
        <dc:type
           rdf:resource="http://purl.org/dc/dcmitype/StillImage" />
        <dc:title></dc:title>
      </cc:Work>
    </rdf:RDF>
  </metadata>
  <g
     id="layer1">
    <path
       style="color:#000000;font-style:normal;font-variant:normal;font-weight:normal;font-stretch:normal;font-size:medium;line-height:normal;font-family:sans-serif;font-variant-ligatures:normal;font-variant-position:normal;font-variant-caps:normal;font-variant-numeric:normal;font-variant-alternates:normal;font-variant-east-asian:normal;font-feature-settings:normal;font-variation-settings:normal;text-indent:0;text-align:start;text-decoration:none;text-decoration-line:none;text-decoration-style:solid;text-decoration-color:#000000;letter-spacing:normal;word-spacing:normal;text-transform:none;writing-mode:lr-tb;direction:ltr;text-orientation:mixed;dominant-baseline:auto;baseline-shift:baseline;text-anchor:start;white-space:normal;shape-padding:0;shape-margin:0;inline-size:0;clip-rule:nonzero;display:inline;overflow:visible;visibility:visible;isolation:auto;mix-blend-mode:normal;color-interpolation:sRGB;color-interpolation-filters:linearRGB;solid-color:#000000;solid-opacity:1;vector-effect:none;fill:#000000;fill-opacity:1;fill-rule:nonzero;stroke:none;stroke-width:4.50847;stroke-linecap:butt;stroke-linejoin:miter;stroke-miterlimit:10;stroke-dasharray:none;stroke-dashoffset:0;stroke-opacity:1;color-rendering:auto;image-rendering:auto;shape-rendering:auto;text-rendering:auto;enable-background:accumulate;stop-color:#000000"
       d="m 65.833415,43.611512 c -17.4478,0 -31.388359,9.070952 -39.510828,24.541832 -8.122422,15.470881 -11.86112,37.778916 -11.86112,59.490156 0,21.71122 3.738698,44.01926 11.86112,59.49014 8.122469,15.47088 22.063078,24.53303 39.510828,24.53303 17.44775,0 31.76431,-8.81815 40.549775,-24.25125 8.78549,-15.4331 13.20839,-37.87633 13.20839,-59.77192 0,-21.89562 -4.4229,-44.347636 -13.20839,-59.78074 C 97.597725,52.429656 83.281165,43.611512 65.833415,43.611512 Z m 0,16.696031 c 9.61121,0 17.40754,5.468803 23.968835,16.994835 6.561331,11.526033 8.330672,31.098452 8.330672,50.341122 0,19.24265 -1.769341,38.80627 -8.330672,50.3323 -6.561295,11.52603 -14.357625,17.00364 -23.968835,17.00365 -9.61121,-1e-5 -16.59015,-5.22481 -22.62163,-16.71306 -6.031529,-11.48826 -7.291649,-31.19587 -7.291649,-50.62289 0,-19.42705 1.26012,-39.13465 7.291649,-50.622901 6.03148,-11.488256 13.01042,-16.71306 22.62163,-16.713056 z"
       id="path833-0" />
  </g>
</svg>
